<svg width="12" height="12" viewBox="0 0 12 12" fill="none" xmlns="http://www.w3.org/2000/svg">
<path d="M1.46875 5.72534C1.05454 5.72534 0.71875 6.06113 0.71875 6.47534C0.71875 6.88956 1.05454 7.22534 1.46875 7.22534L1.46875 5.72534ZM10.932 7.00567C11.2249 6.71278 11.2249 6.2379 10.932 5.94501L6.15906 1.17204C5.86617 0.879147 5.39129 0.879147 5.0984 1.17204C4.80551 1.46493 4.80551 1.93981 5.0984 2.2327L9.34104 6.47534L5.0984 10.718C4.80551 11.0109 4.80551 11.4857 5.0984 11.7786C5.39129 12.0715 5.86617 12.0715 6.15906 11.7786L10.932 7.00567ZM1.46875 7.22534L10.4017 7.22534L10.4017 5.72534L1.46875 5.72534L1.46875 7.22534Z" fill="white"/>
</svg>
