<svg width="13" height="14" viewBox="0 0 13 14" fill="none" xmlns="http://www.w3.org/2000/svg">
<g clip-path="url(#clip0_74_72)">
<path d="M12.285 4.54862C12.2749 4.03895 12.1784 3.53469 11.9997 3.05727C11.8452 2.64736 11.6032 2.27607 11.2905 1.96931C10.9838 1.6566 10.6125 1.41459 10.2026 1.26015C9.72536 1.0815 9.22134 0.985033 8.71189 0.974845C8.05597 0.944814 7.84712 0.937988 6.17899 0.937988C4.51086 0.937988 4.30201 0.944814 3.64677 0.974845C3.1371 0.984956 2.63283 1.08142 2.15542 1.26015C1.74526 1.4145 1.37373 1.65652 1.06677 1.96931C0.754065 2.27607 0.512051 2.64736 0.357609 3.05727C0.178962 3.53447 0.0824953 4.0385 0.0723074 4.54794C0.0429582 5.20386 0.0361328 5.41272 0.0361328 7.08085C0.0361328 8.74897 0.0429582 8.95783 0.07299 9.61307C0.0831009 10.1227 0.179569 10.627 0.358292 11.1044C0.512734 11.5143 0.754747 11.8856 1.06745 12.1924C1.3742 12.5051 1.74549 12.7471 2.15542 12.9015C2.63262 13.0802 3.13665 13.1767 3.64609 13.1868C4.30201 13.2169 4.51086 13.2237 6.17899 13.2237C7.84712 13.2237 8.05597 13.2169 8.71121 13.1868C9.22088 13.1767 9.72515 13.0803 10.2026 12.9015C10.6108 12.7437 10.9815 12.5023 11.291 12.1929C11.6005 11.8834 11.8419 11.5126 11.9997 11.1044C12.1783 10.6272 12.2748 10.1232 12.285 9.61375C12.315 8.95783 12.3218 8.74897 12.3218 7.08085C12.3218 5.41272 12.315 5.20386 12.285 4.54862ZM11.1793 9.56324C11.1746 9.95251 11.103 10.3381 10.9677 10.7031C10.8656 10.9681 10.7091 11.2089 10.5083 11.4098C10.3075 11.6107 10.0669 11.7673 9.80191 11.8695C9.43667 12.0049 9.05088 12.0765 8.66139 12.0811C8.01297 12.1105 7.81913 12.1166 6.17899 12.1166C4.53885 12.1166 4.34432 12.1105 3.69659 12.0811C3.30733 12.0764 2.92178 12.0048 2.55675 11.8695C2.28966 11.7712 2.04803 11.6143 1.84964 11.4102C1.64566 11.212 1.48869 10.9706 1.39029 10.7038C1.25491 10.3385 1.18334 9.95273 1.1787 9.56324C1.14936 8.91483 1.14321 8.72099 1.14321 7.08085C1.14321 5.4407 1.14936 5.24618 1.1787 4.59845C1.18343 4.20919 1.255 3.82363 1.39029 3.45861C1.4886 3.19152 1.64557 2.94988 1.84964 2.7515C2.04783 2.54751 2.28922 2.39055 2.55607 2.29215C2.92131 2.15678 3.3071 2.0852 3.69659 2.08056C4.34501 2.05121 4.53885 2.04507 6.17899 2.04507C7.81913 2.04507 8.01366 2.05121 8.66139 2.08056C9.05065 2.08528 9.4362 2.15685 9.80123 2.29215C10.0683 2.39046 10.31 2.54743 10.5083 2.7515C10.7123 2.94969 10.8693 3.19108 10.9677 3.45792C11.1031 3.82316 11.1746 4.20896 11.1793 4.59845C11.2086 5.24686 11.2148 5.4407 11.2148 7.08085C11.2148 8.72099 11.2086 8.91551 11.1793 9.56324ZM6.17899 3.92615C5.55505 3.92615 4.94512 4.11117 4.42633 4.45781C3.90755 4.80445 3.5032 5.29715 3.26443 5.87359C3.02566 6.45004 2.96318 7.08435 3.08491 7.6963C3.20663 8.30825 3.50709 8.87036 3.94828 9.31155C4.38947 9.75275 4.95159 10.0532 5.56354 10.1749C6.17549 10.2967 6.80979 10.2342 7.38624 9.99541C7.96269 9.75664 8.45538 9.35229 8.80203 8.8335C9.14867 8.31471 9.33369 7.70479 9.33369 7.08085C9.33369 6.24417 9.00132 5.44176 8.4097 4.85014C7.81808 4.25852 7.01567 3.92615 6.17899 3.92615ZM6.17899 9.12846C5.77401 9.12846 5.37812 9.00837 5.04139 8.78338C4.70466 8.55838 4.44222 8.23859 4.28724 7.86444C4.13226 7.49028 4.09171 7.07857 4.17072 6.68138C4.24972 6.28418 4.44474 5.91932 4.7311 5.63296C5.01747 5.3466 5.38232 5.15158 5.77952 5.07257C6.17672 4.99356 6.58843 5.03411 6.96258 5.18909C7.33673 5.34407 7.65653 5.60652 7.88152 5.94325C8.10652 6.27998 8.22661 6.67586 8.22661 7.08085C8.22661 7.62391 8.01088 8.14473 7.62688 8.52873C7.24287 8.91273 6.72205 9.12846 6.17899 9.12846ZM10.1951 3.80192C10.1951 3.94772 10.1518 4.09024 10.0708 4.21146C9.98982 4.33268 9.8747 4.42716 9.74 4.48296C9.60531 4.53875 9.45709 4.55335 9.3141 4.5249C9.17111 4.49646 9.03976 4.42625 8.93667 4.32316C8.83358 4.22007 8.76338 4.08873 8.73493 3.94573C8.70649 3.80274 8.72109 3.65453 8.77688 3.51983C8.83267 3.38514 8.92715 3.27001 9.04838 3.18901C9.1696 3.10801 9.31212 3.06478 9.45791 3.06478C9.65341 3.06478 9.84091 3.14245 9.97915 3.28069C10.1174 3.41893 10.1951 3.60642 10.1951 3.80192Z" fill="white"/>
</g>
<defs>
<clipPath id="clip0_74_72">
<rect width="12.2857" height="12.2857" fill="white" transform="translate(0.0361328 0.937988)"/>
</clipPath>
</defs>
</svg>
