<svg width="15" height="13" viewBox="0 0 15 13" fill="none" xmlns="http://www.w3.org/2000/svg">
<path fill-rule="evenodd" clip-rule="evenodd" d="M3.58749 13V4.22849H0.672334V12.9999H3.58749V13ZM2.13022 3.03133C3.14647 3.03133 3.77952 2.35721 3.77952 1.5155C3.7603 0.655084 3.14647 0 2.14927 0C1.15192 2.66153e-05 0.5 0.65511 0.5 1.51553C0.5 2.35724 1.1327 3.03135 2.11103 3.03135L2.13022 3.03133ZM5.20091 13C5.20091 13 5.23915 5.05149 5.20091 4.22851H8.11651V5.50057H8.09716C8.48053 4.90199 9.1712 4.02254 10.7438 4.02254C12.6624 4.02254 14.1004 5.2762 14.1004 7.97047V13H11.1853V8.3075C11.1853 7.12841 10.7635 6.32383 9.70822 6.32383C8.903 6.32383 8.42312 6.86625 8.21238 7.39058C8.13528 7.5772 8.11651 7.83934 8.11651 8.1015V13H5.20091Z" fill="white"/>
</svg>
